<svg width="132" height="46" viewBox="0 0 132 46" fill="none" xmlns="http://www.w3.org/2000/svg">
<rect width="126" height="46" rx="8" fill="#077BC3"/>
<path d="M34.4369 29H31.0619L37.2068 11.5455H41.1102L47.2636 29H43.8886L39.2267 15.125H39.0904L34.4369 29ZM34.5477 22.1562H43.7523V24.696H34.5477V22.1562ZM49.4263 33.9091V15.9091H52.4604V18.0739H52.6394C52.7985 17.7557 53.0229 17.4176 53.3127 17.0597C53.6024 16.696 53.9945 16.3864 54.4888 16.1307C54.9831 15.8693 55.6138 15.7386 56.3808 15.7386C57.3922 15.7386 58.3041 15.9972 59.1166 16.5142C59.9348 17.0256 60.5825 17.7841 61.0598 18.7898C61.5428 19.7898 61.7842 21.017 61.7842 22.4716C61.7842 23.9091 61.5485 25.1307 61.0769 26.1364C60.6053 27.142 59.9632 27.9091 59.1507 28.4375C58.3382 28.9659 57.4178 29.2301 56.3894 29.2301C55.6394 29.2301 55.0172 29.1051 54.5229 28.8551C54.0286 28.6051 53.6308 28.304 53.3297 27.9517C53.0342 27.5937 52.8041 27.2557 52.6394 26.9375H52.5115V33.9091H49.4263ZM52.4519 22.4545C52.4519 23.3011 52.5712 24.0426 52.8098 24.679C53.0541 25.3153 53.4036 25.8125 53.8581 26.1705C54.3183 26.5227 54.8752 26.6989 55.5286 26.6989C56.2104 26.6989 56.7814 26.517 57.2416 26.1534C57.7019 25.7841 58.0485 25.2812 58.2814 24.6449C58.52 24.0028 58.6394 23.2727 58.6394 22.4545C58.6394 21.642 58.5229 20.9205 58.2899 20.2898C58.057 19.6591 57.7104 19.1648 57.2502 18.8068C56.7899 18.4489 56.2161 18.2699 55.5286 18.2699C54.8695 18.2699 54.3098 18.4432 53.8496 18.7898C53.3894 19.1364 53.0399 19.6222 52.8013 20.2472C52.5683 20.8722 52.4519 21.608 52.4519 22.4545ZM64.4263 33.9091V15.9091H67.4604V18.0739H67.6394C67.7985 17.7557 68.0229 17.4176 68.3127 17.0597C68.6024 16.696 68.9945 16.3864 69.4888 16.1307C69.9831 15.8693 70.6138 15.7386 71.3808 15.7386C72.3922 15.7386 73.3041 15.9972 74.1166 16.5142C74.9348 17.0256 75.5825 17.7841 76.0598 18.7898C76.5428 19.7898 76.7842 21.017 76.7842 22.4716C76.7842 23.9091 76.5485 25.1307 76.0769 26.1364C75.6053 27.142 74.9632 27.9091 74.1507 28.4375C73.3382 28.9659 72.4178 29.2301 71.3894 29.2301C70.6394 29.2301 70.0172 29.1051 69.5229 28.8551C69.0286 28.6051 68.6308 28.304 68.3297 27.9517C68.0342 27.5937 67.8041 27.2557 67.6394 26.9375H67.5115V33.9091H64.4263ZM67.4519 22.4545C67.4519 23.3011 67.5712 24.0426 67.8098 24.679C68.0541 25.3153 68.4036 25.8125 68.8581 26.1705C69.3183 26.5227 69.8752 26.6989 70.5286 26.6989C71.2104 26.6989 71.7814 26.517 72.2416 26.1534C72.7019 25.7841 73.0485 25.2812 73.2814 24.6449C73.52 24.0028 73.6394 23.2727 73.6394 22.4545C73.6394 21.642 73.5229 20.9205 73.2899 20.2898C73.057 19.6591 72.7104 19.1648 72.2502 18.8068C71.7899 18.4489 71.2161 18.2699 70.5286 18.2699C69.8695 18.2699 69.3098 18.4432 68.8496 18.7898C68.3894 19.1364 68.0399 19.6222 67.8013 20.2472C67.5683 20.8722 67.4519 21.608 67.4519 22.4545ZM82.5115 11.5455V29H79.4263V11.5455H82.5115ZM87.6017 33.9091C87.1813 33.9091 86.7921 33.875 86.4341 33.8068C86.0818 33.7443 85.8006 33.6705 85.5904 33.5852L86.3063 31.1818C86.7551 31.3125 87.1557 31.375 87.508 31.3693C87.8602 31.3636 88.1699 31.2528 88.4369 31.0369C88.7097 30.8267 88.9398 30.4744 89.1273 29.9801L89.3915 29.2727L84.6443 15.9091H87.9171L90.9341 25.7955H91.0705L94.096 15.9091H97.3773L92.1358 30.5852C91.8915 31.2784 91.5676 31.8722 91.1642 32.3665C90.7608 32.8665 90.2665 33.2472 89.6813 33.5085C89.1017 33.7756 88.4085 33.9091 87.6017 33.9091Z" fill="white"/>
</svg>
