<svg width="104" height="95" viewBox="0 0 104 95" fill="none" xmlns="http://www.w3.org/2000/svg">
<path d="M66.2756 33.8034C66.1343 33.6711 65.9665 33.5661 65.7818 33.4944C65.5971 33.4228 65.399 33.3859 65.1991 33.3859C64.9991 33.3859 64.8011 33.4228 64.6163 33.4944C64.4316 33.5661 64.2638 33.6711 64.1225 33.8034L37.3547 58.8412C37.205 58.9717 37.085 59.129 37.0017 59.3038C36.9184 59.4786 36.8737 59.6673 36.87 59.8586C36.8664 60.0499 36.9041 60.24 36.9807 60.4174C37.0573 60.5948 37.1714 60.756 37.316 60.8913C37.4607 61.0267 37.633 61.1333 37.8227 61.205C38.0124 61.2767 38.2156 61.3119 38.4201 61.3085C38.6247 61.3051 38.8264 61.2632 39.0133 61.1854C39.2002 61.1075 39.3683 60.9952 39.5078 60.8552L66.2756 35.8174C66.4171 35.6852 66.5294 35.5283 66.606 35.3555C66.6826 35.1827 66.722 34.9975 66.722 34.8104C66.722 34.6234 66.6826 34.4382 66.606 34.2654C66.5294 34.0926 66.4171 33.9356 66.2756 33.8034ZM43.0788 46.0734C44.7893 46.0724 46.4465 45.5167 47.7681 44.501C49.0897 43.4852 49.9939 42.0723 50.3267 40.5029C50.6594 38.9335 50.4001 37.3047 49.5929 35.894C48.7858 34.4834 47.4807 33.3782 45.9 32.7667C44.3193 32.1552 42.5609 32.0753 40.9243 32.5405C39.2877 33.0057 37.8741 33.9873 36.9245 35.3181C35.9749 36.6488 35.5479 38.2464 35.7163 39.8386C35.8848 41.4308 36.6382 42.9191 37.8483 44.05C38.5347 44.6928 39.3501 45.2025 40.2477 45.5497C41.1453 45.8969 42.1074 46.0749 43.0788 46.0734ZM40.0014 36.2791C40.6099 35.7099 41.3851 35.3222 42.2291 35.1651C43.0732 35.008 43.948 35.0886 44.7431 35.3966C45.5382 35.7046 46.2177 36.2262 46.6959 36.8955C47.174 37.5648 47.4292 38.3516 47.4292 39.1566C47.4292 39.9615 47.174 40.7484 46.6959 41.4177C46.2177 42.087 45.5382 42.6086 44.7431 42.9166C43.948 43.2246 43.0732 43.3052 42.2291 43.1481C41.3851 42.991 40.6099 42.6033 40.0014 42.0341C39.5965 41.6567 39.2752 41.2083 39.056 40.7145C38.8368 40.2207 38.7239 39.6913 38.7239 39.1566C38.7239 38.6219 38.8368 38.0925 39.056 37.5987C39.2752 37.1049 39.5965 36.6565 40.0014 36.2791ZM99.9233 41.409C98.5806 40.2082 97.1933 38.9656 96.9373 37.9169C96.6652 36.7959 97.3558 35.0669 98.0241 33.3911C98.9767 31.0029 99.9619 28.5329 98.867 26.4107C97.7519 24.2523 95.0422 23.4296 92.4219 22.6316C90.6283 22.0863 88.7758 21.5239 88.0344 20.6557C87.293 19.7874 87.1061 17.9558 86.9334 16.1926C86.6734 13.6353 86.4155 10.9924 84.4228 9.50286C82.4302 8.01328 79.6372 8.36288 76.9234 8.70867C75.0384 8.94237 73.0884 9.18366 71.9936 8.69157C70.9394 8.21468 69.9441 6.6624 68.9833 5.15953C67.5614 2.94037 66.0908 0.643309 63.57 0.107518C61.1325 -0.409273 58.7986 1.0309 56.5338 2.42168C54.923 3.42296 53.2573 4.43944 52 4.43944C50.7427 4.43944 49.077 3.42296 47.4662 2.42548C45.2014 1.0347 42.8594 -0.403573 40.4219 0.111318C37.9011 0.647109 36.4305 2.94417 35.0086 5.16333C34.0478 6.6662 33.0525 8.21848 31.9983 8.69537C30.9034 9.18746 28.9514 8.94617 27.0684 8.71247C24.3547 8.37617 21.5495 8.02658 19.5691 9.50666C17.5886 10.9867 17.3266 13.6353 17.0747 16.1907C16.902 17.9539 16.7233 19.776 15.9737 20.6538C15.2242 21.5315 13.3798 22.0844 11.5863 22.6297C8.96594 23.4258 6.25625 24.2504 5.14109 26.4088C4.04625 28.531 5.03141 31.001 5.98406 33.3892C6.65234 35.0631 7.34297 36.794 7.07078 37.915C6.81484 38.9637 5.4275 40.2063 4.08484 41.4071C2.07594 43.2045 0 45.0626 0 47.5022C0 49.9418 2.07594 51.7999 4.08484 53.5973C5.4275 54.7981 6.81484 56.0407 7.07078 57.0894C7.34297 58.2104 6.65234 59.9394 5.98406 61.6152C5.03141 64.0034 4.04625 66.4734 5.14109 68.5956C6.25625 70.754 8.96594 71.5767 11.5781 72.3747C13.3717 72.92 15.2242 73.4824 15.9656 74.3506C16.707 75.2189 16.8939 77.0505 17.0666 78.8137C17.3184 81.3691 17.5764 84.012 19.5691 85.4977C21.5617 86.9835 24.3547 86.6282 27.0684 86.2919C28.9534 86.0582 30.9034 85.8169 31.9983 86.309C33.0525 86.7859 34.0478 88.3382 35.0086 89.8411C36.4305 92.0602 37.9011 94.3573 40.4219 94.8931C40.7613 94.9639 41.108 94.9996 41.4558 94.9995C43.5175 94.9995 45.5183 93.7721 47.4581 92.5789C49.0689 91.589 50.7345 90.565 51.9919 90.565C53.2492 90.565 54.9148 91.589 56.5256 92.5789C58.7905 93.9697 61.1305 95.408 63.5619 94.8931C66.0827 94.3573 67.5533 92.0602 68.9752 89.8411C69.9359 88.3382 70.9313 86.7859 71.9855 86.309C73.0803 85.8169 75.0323 86.0582 76.9153 86.2919C79.6291 86.6282 82.4342 86.9778 84.4147 85.4977C86.3952 84.0177 86.6653 81.3691 86.9172 78.8137C87.0898 77.0505 87.2686 75.2284 88.0181 74.3506C88.7677 73.4729 90.612 72.92 92.4056 72.3747C95.0259 71.5786 97.7356 70.754 98.8508 68.5956C99.9456 66.4734 98.9605 64.0034 98.0078 61.6152C97.3395 59.9413 96.6489 58.2104 96.9211 57.0894C97.177 56.0407 98.5644 54.7981 99.907 53.5973C101.924 51.7999 104 49.9418 104 47.5022C104 45.0626 101.924 43.2045 99.9152 41.4071L99.9233 41.409ZM97.8169 51.5396C96.1492 53.033 94.4247 54.5796 93.9677 56.4586C93.4923 58.4118 94.3455 60.5474 95.1681 62.6145C95.8994 64.4423 96.653 66.3328 96.1228 67.3645C95.5744 68.4265 93.4923 69.0592 91.4794 69.671C89.2612 70.3474 86.9659 71.0447 85.6537 72.5799C84.3416 74.115 84.112 76.3798 83.8988 78.561C83.7058 80.5217 83.5087 82.5509 82.5317 83.2786C81.5547 84.0063 79.4137 83.7327 77.3317 83.4686C75.0019 83.1798 72.5948 82.8815 70.6794 83.7441C68.8025 84.5915 67.5695 86.5161 66.3772 88.3781C65.2844 90.0881 64.155 91.8493 62.9037 92.1153C61.7358 92.3642 59.9463 91.2622 58.2156 90.1983C56.2311 88.9785 54.1775 87.7169 52.0081 87.7169C49.8388 87.7169 47.7852 88.9785 45.8006 90.1983C44.07 91.2622 42.2784 92.3623 41.1125 92.1153C39.8612 91.8493 38.7319 90.0843 37.6391 88.3781C36.4467 86.5161 35.2137 84.5915 33.3369 83.7441C32.3883 83.3166 31.3198 83.1741 30.2006 83.1741C29.023 83.2009 27.8485 83.2993 26.6845 83.4686C24.6025 83.727 22.4514 83.993 21.4845 83.2786C20.5177 82.5642 20.3125 80.5141 20.1094 78.5534C19.9062 76.3817 19.6747 74.1169 18.3544 72.5818C17.0341 71.0466 14.7469 70.3398 12.5288 69.6634C10.5158 69.0516 8.43375 68.4189 7.88531 67.3569C7.35516 66.3309 8.10875 64.4404 8.84 62.6069C9.6525 60.5398 10.5158 58.4042 10.0405 56.451C9.58344 54.5682 7.85891 53.0311 6.19125 51.532C4.64547 50.1622 3.04688 48.7239 3.04688 47.5022C3.04688 46.2805 4.64547 44.8422 6.19125 43.4667C7.85891 41.9733 9.58344 40.4267 10.0506 38.5477C10.5259 36.5945 9.67281 34.4589 8.85016 32.3918C8.11891 30.564 7.36531 28.6735 7.89547 27.6418C8.44391 26.5798 10.5361 25.9471 12.5389 25.3353C14.757 24.6589 17.0523 23.9616 18.3645 22.4264C19.6767 20.8913 19.9062 18.6322 20.1094 16.451C20.3125 14.4903 20.4994 12.4611 21.4764 11.7334C22.4534 11.0057 24.5944 11.2793 26.6764 11.5434C29.0063 11.8322 31.4133 12.1305 33.3288 11.2679C35.2056 10.4205 36.4386 8.49587 37.6309 6.63391C38.7237 4.92393 39.8531 3.16267 41.1044 2.89667C42.2723 2.64777 44.0619 3.74976 45.7925 4.81374C47.777 6.03352 49.8306 7.29509 52 7.29509C54.1694 7.29509 56.223 6.03352 58.2075 4.81374C59.9381 3.74976 61.7277 2.64967 62.8956 2.89667C64.1469 3.16267 65.2762 4.92773 66.3691 6.63391C67.5614 8.49587 68.7944 10.4205 70.6713 11.2679C72.5867 12.1305 74.9958 11.8379 77.3236 11.5434C79.4056 11.285 81.5567 11.0171 82.5236 11.7334C83.4905 12.4497 83.6977 14.4903 83.8906 16.451C84.1039 18.6322 84.3253 20.8875 85.6456 22.4321C86.9659 23.9768 89.2531 24.6646 91.4713 25.341C93.4842 25.9528 95.5662 26.5855 96.1147 27.6475C96.6448 28.6735 95.8913 30.564 95.16 32.3975C94.3373 34.4646 93.4842 36.6002 93.9595 38.5534C94.4166 40.4362 96.1411 41.9733 97.8087 43.4724C99.3545 44.8422 100.953 46.2805 100.953 47.5022C100.953 48.7239 99.3545 50.1622 97.8087 51.5377L97.8169 51.5396ZM52 13.5213C31.9678 13.5213 15.6711 28.7647 15.6711 47.5022C15.6711 66.2397 31.9678 81.4831 52 81.4831C72.0322 81.4831 88.3289 66.2397 88.3289 47.5022C88.3289 28.7647 72.0322 13.5213 52 13.5213ZM52 78.6332C33.6477 78.6332 18.718 64.6684 18.718 47.5022C18.718 30.336 33.6477 16.3712 52 16.3712C70.3523 16.3712 85.282 30.336 85.282 47.5022C85.282 64.6684 70.3523 78.6332 52 78.6332ZM55.6908 50.9544C54.656 51.9221 53.9513 53.1551 53.6657 54.4974C53.3801 55.8397 53.5265 57.2311 54.0864 58.4956C54.6463 59.7601 55.5945 60.8409 56.8111 61.6013C58.0277 62.3617 59.458 62.7676 60.9213 62.7676C62.3845 62.7676 63.8148 62.3617 65.0314 61.6013C66.248 60.8409 67.1962 59.7601 67.7561 58.4956C68.316 57.2311 68.4624 55.8397 68.1768 54.4974C67.8912 53.1551 67.1865 51.9221 66.1517 50.9544C64.7636 49.6585 62.8825 48.9306 60.9213 48.9306C58.96 48.9306 57.0789 49.6585 55.6908 50.9544ZM63.9986 58.7253C63.3901 59.2945 62.6149 59.6822 61.7709 59.8393C60.9268 59.9964 60.052 59.9158 59.2569 59.6078C58.4618 59.2998 57.7823 58.7782 57.3041 58.1089C56.826 57.4396 56.5708 56.6527 56.5708 55.8478C56.5708 55.0429 56.826 54.256 57.3041 53.5867C57.7823 52.9174 58.4618 52.3958 59.2569 52.0878C60.052 51.7798 60.9268 51.6992 61.7709 51.8563C62.6149 52.0134 63.3901 52.4011 63.9986 52.9703C64.8134 53.734 65.271 54.7689 65.271 55.8478C65.271 56.9267 64.8134 57.9616 63.9986 58.7253Z" fill="white"/>
</svg>
